<svg width="32" height="32" viewBox="0 0 32 32" fill="none" xmlns="http://www.w3.org/2000/svg">
<mask id="mask0_846_475" style="mask-type:luminance" maskUnits="userSpaceOnUse" x="0" y="0" width="32" height="32">
<path d="M28 0H4C1.79086 0 0 1.79086 0 4V28C0 30.2091 1.79086 32 4 32H28C30.2091 32 32 30.2091 32 28V4C32 1.79086 30.2091 0 28 0Z" fill="white"/>
</mask>
<g mask="url(#mask0_846_475)">
<rect width="32" height="32" rx="4" fill="black"/>
<path d="M30.7989 -5.52867C35.4503 -5.37558 39.9726 -4.0241 43.852 -1.62321L44.559 -1.19919C48.0495 0.972617 50.9234 3.90224 52.9197 7.34004L53.3495 8.07954L52.5599 8.4089L49.0472 9.8739L48.4421 10.1258L48.1115 9.5609C46.4273 6.68529 43.9274 4.26887 40.8697 2.57445L40.8563 2.56713L40.8439 2.55984C37.6312 0.613441 33.9128 -0.514437 30.073 -0.703911C26.6157 -0.831443 23.1732 -0.288392 19.9714 0.88852L19.9624 0.892109C16.6349 2.06378 13.5643 3.76662 10.8928 5.92116C8.223 8.09754 5.97087 10.6679 4.22659 13.5242L4.22139 13.5329L4.21522 13.5414C2.37712 16.3717 1.11256 19.4841 0.47857 22.7289L0.476304 22.7377C-0.127323 25.6614 -0.120897 28.6648 0.492318 31.5906L0.622852 32.1747L0.622782 32.1767C1.29032 35.0039 2.59914 37.678 4.46735 40.0225L4.46924 40.0245C6.28011 42.3133 8.64338 44.1944 11.3776 45.5157L11.913 45.7635C14.6081 46.9694 17.5541 47.6339 20.5521 47.7079L20.5579 47.7081C24.592 47.8408 28.5962 47.1043 32.2498 45.559L32.2558 45.5563C35.9472 44.0321 39.2705 41.8586 42.0418 39.1614L42.4589 38.7561L42.9553 39.0583L45.8071 40.7933L46.6113 41.2834L45.954 41.9575C42.6282 45.3709 38.5955 48.1326 34.0929 50.082L34.084 50.0856C29.665 51.9317 24.8356 52.7987 19.9793 52.6212L19.9802 52.6222C19.9783 52.6222 19.9764 52.6211 19.9744 52.621L19.9734 52.622L19.9734 52.621C16.0551 52.5115 12.2062 51.5959 8.70976 49.9376L8.70014 49.9334C5.40954 48.3193 2.5286 46.068 0.259271 43.331L0.250873 43.3199C-2.02119 40.4748 -3.63226 37.226 -4.4769 33.7783L-4.47777 33.7754C-5.38238 29.9994 -5.45054 26.0966 -4.67651 22.3038C-3.94816 18.3583 -2.43633 14.5762 -0.219449 11.1467L-0.217357 11.1429C1.99084 7.76606 4.78266 4.74901 8.04634 2.20845L8.64628 1.74624C11.6722 -0.534378 15.0657 -2.36787 18.7058 -3.68903L18.7117 -3.69077C22.5614 -5.04804 26.673 -5.67326 30.799 -5.52964L30.7989 -5.52867Z" fill="#F00028" stroke="white" stroke-width="1.5"/>
<path d="M30.79 -5.27883C35.4016 -5.12718 39.8839 -3.78683 43.727 -1.40685L44.4263 -0.987008C47.8837 1.1641 50.7281 4.06408 52.7032 7.46518L52.9894 7.95817L52.4636 8.17776L48.9509 9.64276L48.5472 9.81103L48.3271 9.43475C46.6191 6.51862 44.0852 4.07114 40.9899 2.35596L40.9823 2.3508L40.9736 2.34658C37.7243 0.377877 33.9648 -0.762411 30.0839 -0.953681C26.594 -1.08263 23.1192 -0.534561 19.886 0.653866L19.8791 0.655573C16.5254 1.83643 13.4308 3.55414 10.7365 5.72696C8.04494 7.9209 5.77304 10.512 4.01336 13.3935L4.00608 13.4059L4.00513 13.4049C2.1499 16.2616 0.873308 19.4041 0.233057 22.6811L0.231871 22.6869C-0.419474 25.8415 -0.369478 29.0879 0.379418 32.2325L0.379383 32.2334C1.05567 35.0979 2.38141 37.806 4.27218 40.1787L4.27312 40.1797C6.10828 42.4992 8.50198 44.4034 11.2689 45.7404C14.1392 47.119 17.3127 47.878 20.5451 47.9578L20.55 47.958C24.6196 48.0918 28.6597 47.3488 32.3471 45.7892L32.3511 45.7874C36.071 44.2514 39.4214 42.0607 42.2162 39.3406L42.4946 39.0701L42.8255 39.2715L45.6773 41.0076L46.2138 41.3336L45.7755 41.7831C42.4732 45.1725 38.4673 47.9158 33.9937 49.8527L33.9877 49.8544C29.602 51.6866 24.8077 52.5478 19.9863 52.3713L19.9872 52.3723C19.986 52.3723 19.9846 52.3712 19.9834 52.3712L19.9824 52.3721L19.9824 52.3712C16.0974 52.2628 12.2819 51.3554 8.81655 49.7118L8.8108 49.7087C5.55074 48.1096 2.69867 45.8798 0.452631 43.1708L0.446044 43.1637C-1.80387 40.3463 -3.39864 37.1307 -4.23441 33.7196L-4.23528 33.7166C-5.1314 29.976 -5.19781 26.1106 -4.43106 22.3537C-3.70906 18.4393 -2.20968 14.6861 -0.00932366 11.2823L-0.00827779 11.2803C2.18465 7.92686 4.95761 4.92878 8.20055 2.40453C11.3539 -0.0745445 14.9328 -2.05303 18.7911 -3.4534L18.7951 -3.45521C22.6146 -4.80183 26.6943 -5.42124 30.789 -5.27886L30.79 -5.2798L30.79 -5.27883Z" fill="white" stroke="white"/>
<path d="M18.9253 7.39077C20.5364 7.12976 22.1891 7.22956 23.7537 7.68317L23.7527 7.68415C25.2355 8.11174 26.5987 8.86045 27.7348 9.87657L27.9497 10.0737C28.9388 11.0049 29.7392 12.1068 30.3085 13.323L30.4269 13.5856C31.0808 15.0918 31.4215 16.7075 31.4284 18.3407L31.4286 18.6639C31.4128 20.2763 31.1046 21.8743 30.517 23.3853C29.9098 24.9655 29.0344 26.4373 27.9274 27.7407L27.9264 27.7397C26.8626 29.0107 25.583 30.0982 24.1416 30.9554L24.1407 30.9563C22.6992 31.8095 21.0929 32.3716 19.4202 32.6092L19.4192 32.6082C17.5505 32.9144 15.6296 32.7236 13.8651 32.0536L13.8641 32.0536C12.1637 31.4049 10.6619 30.3459 9.50641 28.9757L8.97568 28.3453L9.65307 27.876L10.9483 26.9776L11.5057 26.5915L11.9465 27.1077C12.7521 28.0533 13.7965 28.7894 14.9832 29.2452L15.2225 29.3329L15.2283 29.3349C16.5018 29.7899 17.877 29.9255 19.2218 29.7275L19.2247 29.7265C20.5136 29.5403 21.7478 29.1029 22.8508 28.4426L22.8517 28.4416C24.0036 27.7557 25.0207 26.8837 25.8577 25.8652C26.6942 24.8258 27.3491 23.6646 27.7985 22.4273L27.8024 22.4185L27.8054 22.4097C28.2911 21.1694 28.5342 19.8546 28.5242 18.5313L28.5242 18.5254C28.5238 17.2854 28.2638 16.0575 27.7579 14.9137C27.2969 13.8718 26.6169 12.9293 25.7579 12.1456L25.4325 11.8821C24.6565 11.2885 23.7644 10.8432 22.8046 10.5755L22.7978 10.5735C21.6368 10.2385 20.4111 10.1582 19.2126 10.3388L19.196 10.3417L19.1794 10.3427C18.0505 10.4616 16.9545 10.7788 15.9477 11.2777C14.9261 11.8341 13.999 12.5342 13.1963 13.3529L13.1953 13.352C12.3839 14.1874 11.7019 15.1285 11.167 16.1454C10.7974 16.8515 10.5116 17.593 10.3102 18.356L16.5733 17.4813L17.4267 17.3616L17.4288 20.219L16.7853 20.3113L7.78818 21.6117L6.89765 21.7403L6.93215 20.8409C6.99475 19.211 7.36135 17.6057 8.01563 16.1018L8.01758 16.0979C8.67957 14.5987 9.59545 13.2163 10.7265 12.0061C11.661 10.9417 12.7563 10.0206 13.9746 9.27326L14.5066 8.96233C15.8579 8.16305 17.36 7.63007 18.9253 7.39175L18.9253 7.39077Z" fill="white" stroke="white" stroke-width="1.5"/>
<path d="M18.9704 7.63781C20.5434 7.3837 22.1562 7.4807 23.6835 7.92345L23.9531 8.00529C25.2959 8.43319 26.5294 9.13433 27.5679 10.0632C28.6316 11.0125 29.4866 12.1574 30.0821 13.4296L30.1975 13.6853C30.8384 15.1616 31.172 16.7447 31.1784 18.3448L31.1786 18.6612C31.1632 20.2425 30.8598 21.8092 30.2835 23.2917L30.2845 23.2927C29.6875 24.8473 28.8264 26.2957 27.7368 27.5787L27.7359 27.5777C26.8211 28.6711 25.7437 29.6265 24.5387 30.4131L24.0136 30.7406C22.6006 31.5768 21.0254 32.1282 19.3848 32.3611L19.3839 32.3602C17.5568 32.6605 15.6786 32.475 13.9538 31.8202L13.9528 31.8202C12.2912 31.1863 10.8253 30.1516 9.6977 28.8145L9.34388 28.3948L9.79482 28.081L11.0901 27.1836L11.462 26.9255L11.7561 27.27C12.6448 28.313 13.8134 29.108 15.1397 29.5683L15.1445 29.5703C16.4568 30.0392 17.8738 30.1786 19.2591 29.9745L19.2601 29.9745C20.5815 29.7836 21.847 29.3349 22.9788 28.6574L22.9798 28.6564C24.1548 27.9567 25.1923 27.0667 26.0472 26.0272C26.9031 24.965 27.5742 23.778 28.034 22.5121L28.0379 22.5004C28.5351 21.2305 28.7845 19.8846 28.7742 18.5291L28.7742 18.5252C28.7738 17.2503 28.5061 15.9882 27.9864 14.8129L27.7966 14.4127C27.3289 13.4907 26.6905 12.6547 25.9101 11.9463L25.9091 11.9463C25.0357 11.2006 23.9985 10.6495 22.8718 10.3352L22.8669 10.3332C21.6713 9.98822 20.4093 9.90583 19.1753 10.0918L19.1636 10.0937L19.1529 10.0947C17.9926 10.2169 16.8665 10.5433 15.8313 11.0571L15.4438 11.2771C14.5517 11.8061 13.7357 12.4447 13.0174 13.1773C12.1894 14.0296 11.4915 14.9891 10.9453 16.0274C10.5085 16.8615 10.1859 17.7448 9.9794 18.6541L16.6076 17.7284L17.1769 17.6489L17.1786 20.0024L16.75 20.0642L7.75284 21.3647L7.15818 21.4501L7.18118 20.8505C7.24258 19.2518 7.60323 17.6768 8.2452 16.2012L8.24617 16.1993C8.89449 14.731 9.79052 13.3758 10.8976 12.1886C11.9472 10.9888 13.2061 9.97407 14.6161 9.18784L15.1217 8.90427C16.3175 8.27096 17.6197 7.84161 18.9704 7.63683L18.9704 7.63781Z" fill="white" stroke="white"/>
</g>
</svg>
