<svg width="32" height="32" viewBox="0 0 32 32" fill="none" xmlns="http://www.w3.org/2000/svg">
<mask id="mask0_846_449" style="mask-type:luminance" maskUnits="userSpaceOnUse" x="0" y="0" width="32" height="32">
<path d="M32 0H0V32H32V0Z" fill="white"/>
</mask>
<g mask="url(#mask0_846_449)">
<rect width="32" height="32" rx="2" fill="black"/>
<path d="M30.8067 -5.52867C35.4582 -5.37558 39.9804 -4.0241 43.8598 -1.62321L44.5668 -1.19919C48.0573 0.972618 50.9312 3.90224 52.9275 7.34004L53.3574 8.07954L52.5677 8.4089L49.055 9.8739L48.4499 10.1258L48.1193 9.5609C46.4351 6.68529 43.9352 4.26887 40.8775 2.57445L40.8641 2.56713L40.8517 2.55984C37.639 0.613441 33.9206 -0.514437 30.0808 -0.703911C26.6235 -0.831443 23.181 -0.288392 19.9792 0.88852L19.9703 0.892109C16.6427 2.06378 13.5722 3.76662 10.9006 5.92116C8.23081 8.09754 5.97869 10.6679 4.2344 13.5242L4.22921 13.5329L4.22304 13.5414C2.38493 16.3717 1.12038 19.4841 0.486383 22.7289L0.484116 22.7377C-0.119511 25.6614 -0.113084 28.6648 0.500131 31.5906L0.630664 32.1747L0.630594 32.1767C1.29814 35.0039 2.60695 37.678 4.47517 40.0225L4.47705 40.0245C6.28792 42.3133 8.65119 44.1944 11.3854 45.5157L11.9209 45.7635C14.6159 46.9694 17.5619 47.6339 20.5599 47.7079L20.5657 47.7081C24.5998 47.8408 28.6041 47.1043 32.2576 45.559L32.2636 45.5563C35.955 44.0321 39.2783 41.8586 42.0496 39.1614L42.4668 38.7561L42.9631 39.0583L45.8149 40.7933L46.6192 41.2834L45.9618 41.9575C42.636 45.3709 38.6033 48.1326 34.1008 50.082L34.0918 50.0856C29.6728 51.9317 24.8434 52.7987 19.9871 52.6212L19.988 52.6222C19.9861 52.6222 19.9842 52.6211 19.9822 52.621L19.9812 52.622L19.9813 52.621C16.0629 52.5115 12.2141 51.5959 8.71758 49.9376L8.70796 49.9334C5.41735 48.3193 2.53641 46.068 0.267084 43.331L0.258685 43.3199C-2.01337 40.4748 -3.62444 37.226 -4.46909 33.7783L-4.46996 33.7754C-5.37456 29.9994 -5.44273 26.0966 -4.66869 22.3038C-3.94034 18.3583 -2.42852 14.5762 -0.211636 11.1467L-0.209545 11.1429C1.99865 7.76606 4.79048 4.74901 8.05415 2.20845L8.6541 1.74624C11.68 -0.534378 15.0735 -2.36787 18.7136 -3.68903L18.7195 -3.69077C22.5692 -5.04804 26.6808 -5.67326 30.8068 -5.52964L30.8067 -5.52867Z" fill="#F00028" stroke="white" stroke-width="1.5"/>
<path d="M30.7978 -5.27883C35.4094 -5.12718 39.8917 -3.78683 43.7348 -1.40685L44.4341 -0.987008C47.8915 1.1641 50.736 4.06408 52.711 7.46518L52.9972 7.95817L52.4714 8.17776L48.9587 9.64276L48.555 9.81103L48.3349 9.43475C46.627 6.51862 44.093 4.07114 40.9977 2.35596L40.9901 2.3508L40.9815 2.34658C37.7321 0.377877 33.9726 -0.762411 30.0917 -0.953681C26.6018 -1.08263 23.1271 -0.534561 19.8938 0.653866L19.8869 0.655573C16.5332 1.83643 13.4386 3.55414 10.7443 5.72696C8.05276 7.9209 5.78085 10.512 4.02117 13.3935L4.01389 13.4059L4.01295 13.4049C2.15771 16.2616 0.881121 19.4041 0.240869 22.6811L0.239684 22.6869C-0.411662 25.8415 -0.361666 29.0879 0.38723 32.2325L0.387195 32.2334C1.06348 35.0979 2.38922 37.806 4.27999 40.1787L4.28094 40.1797C6.11609 42.4992 8.50979 44.4034 11.2767 45.7404C14.1471 47.119 17.3205 47.878 20.5529 47.9578L20.5578 47.958C24.6274 48.0918 28.6675 47.3488 32.3549 45.7892L32.3589 45.7874C36.0788 44.2514 39.4292 42.0607 42.224 39.3406L42.5024 39.0701L42.8333 39.2715L45.6851 41.0076L46.2216 41.3336L45.7833 41.7831C42.481 45.1725 38.4752 47.9158 34.0015 49.8527L33.9956 49.8544C29.6098 51.6866 24.8155 52.5478 19.9941 52.3713L19.995 52.3723C19.9938 52.3723 19.9925 52.3712 19.9912 52.3712L19.9902 52.3721L19.9902 52.3712C16.1052 52.2628 12.2897 51.3554 8.82436 49.7118L8.81861 49.7087C5.55855 48.1096 2.70649 45.8798 0.460443 43.1708L0.453857 43.1637C-1.79606 40.3463 -3.39083 37.1307 -4.2266 33.7196L-4.22747 33.7166C-5.12358 29.976 -5.19 26.1106 -4.42325 22.3537C-3.70125 18.4393 -2.20187 14.6861 -0.00151116 11.2823L-0.000465287 11.2803C2.19246 7.92686 4.96542 4.92878 8.20836 2.40453C11.3617 -0.0745445 14.9406 -2.05303 18.7989 -3.4534L18.8029 -3.45521C22.6224 -4.80183 26.7021 -5.42124 30.7968 -5.27886L30.7978 -5.2798L30.7978 -5.27883Z" fill="white" stroke="white"/>
<path d="M18.9331 7.39077C20.5442 7.12976 22.1969 7.22956 23.7615 7.68317L23.7605 7.68415C25.2433 8.11174 26.6065 8.86045 27.7426 9.87657L27.9576 10.0737C28.9467 11.0049 29.747 12.1068 30.3164 13.323L30.4347 13.5856C31.0886 15.0918 31.4293 16.7075 31.4362 18.3407L31.4364 18.6639C31.4206 20.2763 31.1125 21.8743 30.5248 23.3853C29.9176 24.9655 29.0422 26.4373 27.9352 27.7407L27.9342 27.7397C26.8704 29.0107 25.5908 30.0982 24.1494 30.9554L24.1485 30.9563C22.707 31.8095 21.1007 32.3716 19.428 32.6092L19.427 32.6082C17.5583 32.9144 15.6374 32.7236 13.8729 32.0536L13.8719 32.0536C12.1715 31.4049 10.6697 30.3459 9.51422 28.9757L8.98349 28.3453L9.66088 27.876L10.9561 26.9776L11.5135 26.5915L11.9543 27.1077C12.7599 28.0533 13.8044 28.7894 14.991 29.2452L15.2303 29.3329L15.2362 29.3349C16.5096 29.7899 17.8848 29.9255 19.2296 29.7275L19.2325 29.7265C20.5214 29.5403 21.7556 29.1029 22.8586 28.4426L22.8595 28.4416C24.0115 27.7557 25.0286 26.8837 25.8655 25.8652C26.702 24.8258 27.3569 23.6646 27.8064 22.4273L27.8103 22.4185L27.8132 22.4097C28.2989 21.1694 28.542 19.8546 28.532 18.5313L28.532 18.5254C28.5316 17.2854 28.2716 16.0575 27.7658 14.9137C27.3047 13.8718 26.6247 12.9293 25.7657 12.1456L25.4403 11.8821C24.6644 11.2885 23.7722 10.8432 22.8124 10.5755L22.8056 10.5735C21.6446 10.2385 20.419 10.1582 19.2204 10.3388L19.2038 10.3417L19.1872 10.3427C18.0583 10.4616 16.9623 10.7788 15.9555 11.2777C14.9339 11.8341 14.0068 12.5342 13.2041 13.3529L13.2031 13.352C12.3917 14.1874 11.7097 15.1285 11.1748 16.1454C10.8052 16.8515 10.5194 17.593 10.318 18.356L16.5811 17.4813L17.4345 17.3616L17.4366 20.219L16.7931 20.3113L7.79599 21.6117L6.90546 21.7403L6.93996 20.8409C7.00256 19.211 7.36916 17.6057 8.02344 16.1018L8.02539 16.0979C8.68738 14.5987 9.60326 13.2163 10.7343 12.0061C11.6689 10.9417 12.7641 10.0206 13.9824 9.27326L14.5144 8.96233C15.8658 8.16305 17.3678 7.63007 18.9332 7.39175L18.9331 7.39077Z" fill="white" stroke="white" stroke-width="1.5"/>
<path d="M18.9783 7.63781C20.5512 7.3837 22.1641 7.4807 23.6913 7.92345L23.9609 8.00529C25.3038 8.43319 26.5372 9.13433 27.5757 10.0632C28.6394 11.0125 29.4944 12.1574 30.0899 13.4296L30.2053 13.6853C30.8462 15.1616 31.1798 16.7447 31.1862 18.3448L31.1864 18.6612C31.171 20.2425 30.8676 21.8092 30.2914 23.2917L30.2923 23.2927C29.6953 24.8473 28.8343 26.2957 27.7447 27.5787L27.7437 27.5777C26.8289 28.6711 25.7515 29.6265 24.5465 30.4131L24.0214 30.7406C22.6084 31.5768 21.0332 32.1282 19.3927 32.3611L19.3917 32.3602C17.5646 32.6605 15.6864 32.475 13.9616 31.8202L13.9606 31.8202C12.2991 31.1863 10.8331 30.1516 9.70551 28.8145L9.35169 28.3948L9.80263 28.081L11.0979 27.1836L11.4698 26.9255L11.764 27.27C12.6526 28.313 13.8212 29.108 15.1475 29.5683L15.1523 29.5703C16.4646 30.0392 17.8816 30.1786 19.2669 29.9745L19.2679 29.9745C20.5893 29.7836 21.8549 29.3349 22.9867 28.6574L22.9876 28.6564C24.1626 27.9567 25.2001 27.0667 26.0551 26.0272C26.9109 24.965 27.582 23.778 28.0418 22.5121L28.0457 22.5004C28.5429 21.2305 28.7923 19.8846 28.782 18.5291L28.782 18.5252C28.7816 17.2503 28.5139 15.9882 27.9942 14.8129L27.8045 14.4127C27.3367 13.4907 26.6984 12.6547 25.9179 11.9463L25.9169 11.9463C25.0435 11.2006 24.0063 10.6495 22.8796 10.3352L22.8747 10.3332C21.6791 9.98822 20.4172 9.90583 19.1832 10.0918L19.1714 10.0937L19.1607 10.0947C18.0004 10.2169 16.8743 10.5433 15.8391 11.0571L15.4516 11.2771C14.5595 11.8061 13.7435 12.4447 13.0252 13.1773C12.1972 14.0296 11.4993 14.9891 10.9531 16.0274C10.5163 16.8615 10.1937 17.7448 9.98721 18.6541L16.6154 17.7284L17.1847 17.6489L17.1864 20.0024L16.7578 20.0642L7.76066 21.3647L7.16599 21.4501L7.189 20.8505C7.25039 19.2518 7.61105 17.6768 8.25301 16.2012L8.25398 16.1993C8.9023 14.731 9.79833 13.3758 10.9054 12.1886C11.955 10.9888 13.2139 9.97407 14.6239 9.18784L15.1296 8.90427C16.3253 8.27096 17.6275 7.84161 18.9782 7.63683L18.9783 7.63781Z" fill="white" stroke="white"/>
</g>
</svg>
