<svg width="32" height="32" viewBox="0 0 32 32" fill="none" xmlns="http://www.w3.org/2000/svg">
<g clip-path="url(#clip0_2305_389)">
<path d="M27.16 0H4.84C2.16694 0 0 2.16694 0 4.84V27.16C0 29.8331 2.16694 32 4.84 32H27.16C29.8331 32 32 29.8331 32 27.16V4.84C32 2.16694 29.8331 0 27.16 0Z" fill="black"/>
<path d="M9.90905 20.8202C9.0696 20.8276 8.23919 20.6465 7.47905 20.2902C6.76414 19.9429 6.13298 19.4448 5.62905 18.8302C5.12275 18.1894 4.75499 17.4505 4.54905 16.6602C4.32707 15.7914 4.28286 14.8866 4.41905 14.0002C4.54451 13.0743 4.83943 12.1793 5.28905 11.3602C5.73795 10.5521 6.31552 9.82257 6.99905 9.20022C7.66299 8.58967 8.42322 8.09298 9.24905 7.73022C10.0645 7.38148 10.9421 7.2012 11.8291 7.20022C12.8255 7.19701 13.8027 7.47425 14.6491 8.00022C15.479 8.48077 16.1685 9.17032 16.6491 10.0002L15.8891 10.3802C15.48 9.67959 14.8892 9.10257 14.1791 8.71022C13.4336 8.25801 12.5809 8.01291 11.7091 8.00022C10.9271 7.99911 10.1536 8.16265 9.43905 8.48022C8.70045 8.79572 8.02338 9.2392 7.43905 9.79022C6.85586 10.3459 6.36921 10.9948 5.99905 11.7102C5.60695 12.4211 5.34612 13.1968 5.22905 14.0002C5.10811 14.7764 5.14553 15.5689 5.33905 16.3302C5.51454 17.0259 5.83485 17.6768 6.27905 18.2402C6.7116 18.7927 7.26604 19.2376 7.89905 19.5402C8.55481 19.8517 9.27313 20.009 9.99905 20.0002C10.9096 19.9973 11.8068 19.7816 12.6191 19.3702C13.4364 18.9655 14.1667 18.405 14.7691 17.7202L15.4091 18.1102C14.7204 18.9359 13.8739 19.6159 12.9191 20.1102C11.9847 20.578 10.954 20.8212 9.90905 20.8202Z" fill="white"/>
<path d="M8.41903 23.9401C7.58277 23.9477 6.75557 23.7665 5.99903 23.4101C5.25964 23.0751 4.60895 22.5717 4.09903 21.9401C3.58285 21.299 3.20799 20.5561 2.99903 19.7601C2.78706 18.8997 2.74628 18.0061 2.87903 17.1301C3.00836 16.1787 3.31355 15.2598 3.77903 14.4201C4.679 12.8166 6.08596 11.5574 7.77903 10.8401C8.57949 10.5143 9.43484 10.3446 10.299 10.3401C11.2412 10.3314 12.1702 10.562 12.999 11.0101C13.8318 11.4868 14.5223 12.1773 14.999 13.0101L13.119 14.0101C12.7746 13.47 12.2956 13.0289 11.729 12.7301C11.1836 12.4427 10.5755 12.2949 9.95903 12.3001C9.34975 12.2992 8.74696 12.4253 8.18903 12.6701C7.60677 12.912 7.0693 13.2501 6.59903 13.6701C6.15067 14.1274 5.7792 14.6542 5.49903 15.2301C5.16784 15.8238 4.95395 16.4756 4.86903 17.1501C4.79662 17.7695 4.84071 18.3969 4.99903 19.0001C5.13511 19.5634 5.3947 20.0894 5.75903 20.5401C6.11162 20.967 6.55599 21.3088 7.05903 21.5401C7.5897 21.7925 8.17145 21.9191 8.75903 21.9101C9.22457 21.911 9.6872 21.8368 10.129 21.6901C10.5787 21.5336 11.0057 21.3184 11.399 21.0501C11.805 20.7628 12.1744 20.4269 12.499 20.0501C12.834 19.6548 13.1163 19.2179 13.339 18.7501H10.499L10.749 17.0301H15.829C15.7246 17.9806 15.4431 18.9032 14.999 19.7501C14.5598 20.565 13.9888 21.3016 13.309 21.9301C12.63 22.5527 11.8485 23.0534 10.999 23.4101C10.1835 23.7586 9.30593 23.9388 8.41903 23.9401Z" fill="white"/>
<path d="M22.32 10.5598C23.1545 10.4194 24.0102 10.4742 24.82 10.7198C25.5849 10.9505 26.2864 11.3543 26.87 11.8998C27.4706 12.4598 27.9445 13.1417 28.26 13.8998C28.601 14.7209 28.7776 15.6008 28.78 16.4898C28.7924 17.4316 28.6296 18.3675 28.3 19.2498C27.979 20.12 27.516 20.931 26.93 21.6498C26.3686 22.3491 25.6923 22.9476 24.93 23.4198C24.1763 23.8844 23.3359 24.1907 22.46 24.3198C21.4907 24.4865 20.4942 24.3827 19.58 24.0198C18.7 23.6688 17.9251 23.0971 17.33 22.3598L18.05 21.8398C18.5762 22.4851 19.2673 22.9758 20.05 23.2598C20.8221 23.5483 21.6552 23.6344 22.47 23.5098C23.2404 23.3943 23.9789 23.122 24.64 22.7098C25.3212 22.2873 25.9235 21.7492 26.42 21.1198C26.915 20.4798 27.3034 19.7639 27.57 18.9998C27.8597 18.2296 28.0054 17.4127 28 16.5898C28.0003 15.81 27.8439 15.0381 27.54 14.3198C27.2588 13.6555 26.8435 13.0563 26.32 12.5598C25.8023 12.0962 25.1872 11.7545 24.52 11.5598C23.8171 11.3476 23.0754 11.2963 22.35 11.4098C21.6691 11.4841 21.0079 11.6841 20.4 11.9998C19.7956 12.3424 19.2461 12.7739 18.77 13.2798C18.2907 13.7936 17.8867 14.3727 17.57 14.9998C17.2536 15.629 17.0377 16.3039 16.93 16.9998L21 16.4098V17.1898L16 17.9398C16.0334 17.0493 16.2264 16.1721 16.57 15.3498C16.9193 14.5261 17.4025 13.7658 18 13.0998C18.5641 12.4281 19.2409 11.8596 20 11.4198C20.7084 10.9817 21.4972 10.6893 22.32 10.5598Z" fill="white"/>
<path d="M22.6105 6.87021C23.4364 6.72566 24.2843 6.77011 25.0905 7.00021C25.8527 7.23721 26.5528 7.64021 27.1405 8.18021C27.7402 8.74099 28.214 9.42268 28.5305 10.1802C28.8772 10.9995 29.0541 11.8806 29.0505 12.7702C29.0621 13.7046 28.9028 14.6331 28.5805 15.5102C28.2591 16.3781 27.7999 17.1885 27.2205 17.9102C26.6586 18.6117 25.9825 19.2134 25.2205 19.6902C24.4669 20.1548 23.6264 20.461 22.7505 20.5902C21.7947 20.7476 20.8141 20.645 19.9115 20.2932C19.0089 19.9413 18.2176 19.3531 17.6205 18.5902L19.6205 17.1802C19.9948 17.59 20.4658 17.8994 20.9905 18.0802C21.5407 18.2798 22.133 18.3349 22.7105 18.2402C23.2766 18.1595 23.8188 17.9583 24.3005 17.6502C24.8028 17.3364 25.2461 16.937 25.6105 16.4702C26.3734 15.4971 26.7888 14.2967 26.7905 13.0602C26.7898 12.4703 26.6743 11.8861 26.4505 11.3402C26.2529 10.8385 25.9454 10.3875 25.5505 10.0202C25.1736 9.66356 24.723 9.3939 24.2305 9.23021C23.7135 9.06725 23.1651 9.02954 22.6305 9.12021C22.0085 9.20788 21.4158 9.44084 20.9005 9.80021C20.3785 10.1525 19.9245 10.5963 19.5605 11.1102L17.5605 10.2902C18.1276 9.38986 18.8647 8.60864 19.7305 7.99021C20.5869 7.39149 21.5747 7.00737 22.6105 6.87021Z" fill="white"/>
<path d="M23.5982 16.0781C24.4527 15.9011 25.0609 15.35 24.9568 14.847C24.8526 14.3441 24.0755 14.0798 23.221 14.2567C22.3665 14.4337 21.7583 14.9849 21.8624 15.4878C21.9666 15.9908 22.7437 16.2551 23.5982 16.0781Z" fill="white"/>
<path d="M10.4431 16.8238C11.3517 16.6356 11.9983 16.0491 11.8874 15.5137C11.7766 14.9783 10.9501 14.6967 10.0416 14.8849C9.13302 15.0731 8.48637 15.6596 8.59724 16.195C8.70812 16.7304 9.53454 17.0119 10.4431 16.8238Z" fill="white"/>
</g>
<defs>
<clipPath id="clip0_2305_389">
<rect width="32" height="32" fill="white"/>
</clipPath>
</defs>
</svg>
