<svg width="1800" height="986" viewBox="0 0 1800 986" fill="none" xmlns="http://www.w3.org/2000/svg">
<rect width="1800" height="986" fill="black"/>
<path d="M627.5 115.6H618C617 111.8 615.433 108.7 613.3 106.3C611.167 103.9 607.867 102.7 603.4 102.7C599 102.7 595.433 103.9 592.7 106.3C590.033 108.7 588.1 112.067 586.9 116.4C585.7 120.667 585.1 125.6 585.1 131.2C585.1 140.667 586.667 147.767 589.8 152.5C592.933 157.233 597.467 159.6 603.4 159.6C608.067 159.6 611.533 158.133 613.8 155.2C616.067 152.267 617.7 147.967 618.7 142.3H628.2C627.267 150.767 624.6 157.133 620.2 161.4C615.8 165.667 610.167 167.8 603.3 167.8C597.233 167.8 592.133 166.333 588 163.4C583.867 160.4 580.733 156.167 578.6 150.7C576.467 145.233 575.4 138.767 575.4 131.3C575.4 126.3 575.9 121.567 576.9 117.1C577.967 112.633 579.6 108.733 581.8 105.4C584 102 586.9 99.3333 590.5 97.4C594.1 95.4667 598.5 94.5 603.7 94.5C608.367 94.5 612.333 95.4333 615.6 97.3C618.867 99.1667 621.5 101.7 623.5 104.9C625.5 108.033 626.833 111.6 627.5 115.6ZM660.716 94.5C669.316 94.5 675.983 97.7333 680.716 104.2C685.516 110.6 687.916 119.6 687.916 131.2C687.916 142.8 685.516 151.8 680.716 158.2C675.983 164.6 669.316 167.8 660.716 167.8C652.116 167.8 645.416 164.6 640.616 158.2C635.883 151.8 633.516 142.8 633.516 131.2C633.516 119.6 635.883 110.6 640.616 104.2C645.416 97.7333 652.116 94.5 660.716 94.5ZM660.716 102.7C655.25 102.7 650.95 105.233 647.816 110.3C644.75 115.3 643.216 122.267 643.216 131.2C643.216 140.067 644.75 147.033 647.816 152.1C650.95 157.1 655.25 159.6 660.716 159.6C666.25 159.6 670.55 157.1 673.616 152.1C676.683 147.033 678.216 140.067 678.216 131.2C678.216 122.267 676.683 115.3 673.616 110.3C670.55 105.233 666.25 102.7 660.716 102.7ZM716.733 146L703.933 110.7V166H696.033V96.1H706.433L720.633 136.3L734.833 96.1H745.033V166H737.133V110.6L724.533 146H716.733ZM760.849 166V158.2H775.649V103.9H760.849V96.1H799.949V103.9H785.049V158.2H799.949V166H760.849ZM854.866 96.1H863.466V166H853.066L825.566 110.1H825.466V166H816.866V96.1H826.966L854.766 152.5H854.866V96.1ZM901.582 129H925.682V166H918.882L918.082 156.4C916.415 160.333 914.049 163.233 910.982 165.1C907.982 166.9 904.515 167.8 900.582 167.8C894.982 167.8 890.149 166.367 886.082 163.5C882.015 160.633 878.849 156.5 876.582 151.1C874.382 145.7 873.282 139.167 873.282 131.5C873.282 123.567 874.449 116.867 876.782 111.4C879.182 105.867 882.482 101.667 886.682 98.8C890.949 95.9333 895.915 94.5 901.582 94.5C907.715 94.5 912.915 96.1333 917.182 99.4C921.515 102.667 924.415 108 925.882 115.4H916.382C915.449 110.6 913.649 107.3 910.982 105.5C908.382 103.633 905.249 102.7 901.582 102.7C895.449 102.7 890.815 105.267 887.682 110.4C884.549 115.467 882.982 122.333 882.982 131C882.982 140.733 884.615 147.933 887.882 152.6C891.149 157.267 895.449 159.6 900.782 159.6C904.649 159.6 907.815 158.7 910.282 156.9C912.749 155.1 914.549 152.667 915.682 149.6C916.882 146.467 917.482 143 917.482 139.2V137.2H901.582V129ZM1043.91 116.3H1034.91C1034.78 112.3 1033.51 109 1031.11 106.4C1028.71 103.733 1025.08 102.4 1020.21 102.4C1015.41 102.4 1011.75 103.467 1009.21 105.6C1006.75 107.733 1005.51 110.367 1005.51 113.5C1005.51 119.1 1008.68 122.633 1015.01 124.1L1029.31 127.4C1034.78 128.667 1038.91 130.967 1041.71 134.3C1044.51 137.633 1045.91 141.567 1045.91 146.1C1045.91 150.7 1044.85 154.633 1042.71 157.9C1040.65 161.1 1037.75 163.567 1034.01 165.3C1030.35 166.967 1026.05 167.8 1021.11 167.8C1012.45 167.8 1005.81 165.667 1001.21 161.4C996.682 157.067 994.348 151.167 994.215 143.7H1003.21C1003.28 148.367 1004.85 152.167 1007.91 155.1C1010.98 158.033 1015.45 159.5 1021.31 159.5C1026.58 159.5 1030.41 158.367 1032.81 156.1C1035.28 153.833 1036.51 150.933 1036.51 147.4C1036.51 144.267 1035.65 141.8 1033.91 140C1032.25 138.2 1029.68 136.9 1026.21 136.1L1011.71 132.7C1006.65 131.5 1002.78 129.367 1000.11 126.3C997.448 123.167 996.115 119.2 996.115 114.4C996.115 110.467 997.115 107.033 999.115 104.1C1001.11 101.1 1003.91 98.7667 1007.51 97.1C1011.18 95.3667 1015.51 94.5 1020.51 94.5C1025.38 94.5 1029.55 95.4 1033.01 97.2C1036.55 99 1039.25 101.467 1041.11 104.6C1042.98 107.667 1043.91 111.133 1043.91 115V116.3ZM1079.43 94.5C1088.03 94.5 1094.7 97.7333 1099.43 104.2C1104.23 110.6 1106.63 119.6 1106.63 131.2C1106.63 142.8 1104.23 151.8 1099.43 158.2C1094.7 164.6 1088.03 167.8 1079.43 167.8C1070.83 167.8 1064.13 164.6 1059.33 158.2C1054.6 151.8 1052.23 142.8 1052.23 131.2C1052.23 119.6 1054.6 110.6 1059.33 104.2C1064.13 97.7333 1070.83 94.5 1079.43 94.5ZM1079.43 102.7C1073.96 102.7 1069.66 105.233 1066.53 110.3C1063.46 115.3 1061.93 122.267 1061.93 131.2C1061.93 140.067 1063.46 147.033 1066.53 152.1C1069.66 157.1 1073.96 159.6 1079.43 159.6C1084.96 159.6 1089.26 157.1 1092.33 152.1C1095.4 147.033 1096.93 140.067 1096.93 131.2C1096.93 122.267 1095.4 115.3 1092.33 110.3C1089.26 105.233 1084.96 102.7 1079.43 102.7ZM1139.25 94.5C1147.85 94.5 1154.51 97.7333 1159.25 104.2C1164.05 110.6 1166.45 119.6 1166.45 131.2C1166.45 142.8 1164.05 151.8 1159.25 158.2C1154.51 164.6 1147.85 167.8 1139.25 167.8C1130.65 167.8 1123.95 164.6 1119.15 158.2C1114.41 151.8 1112.05 142.8 1112.05 131.2C1112.05 119.6 1114.41 110.6 1119.15 104.2C1123.95 97.7333 1130.65 94.5 1139.25 94.5ZM1139.25 102.7C1133.78 102.7 1129.48 105.233 1126.35 110.3C1123.28 115.3 1121.75 122.267 1121.75 131.2C1121.75 140.067 1123.28 147.033 1126.35 152.1C1129.48 157.1 1133.78 159.6 1139.25 159.6C1144.78 159.6 1149.08 157.1 1152.15 152.1C1155.21 147.033 1156.75 140.067 1156.75 131.2C1156.75 122.267 1155.21 115.3 1152.15 110.3C1149.08 105.233 1144.78 102.7 1139.25 102.7ZM1213.76 96.1H1222.36V166H1211.96L1184.46 110.1H1184.36V166H1175.76V96.1H1185.86L1213.66 152.5H1213.76V96.1Z" fill="#848484"/>
<path d="M627.5 296.6H618C617 292.8 615.433 289.7 613.3 287.3C611.167 284.9 607.867 283.7 603.4 283.7C599 283.7 595.433 284.9 592.7 287.3C590.033 289.7 588.1 293.067 586.9 297.4C585.7 301.667 585.1 306.6 585.1 312.2C585.1 321.667 586.667 328.767 589.8 333.5C592.933 338.233 597.467 340.6 603.4 340.6C608.067 340.6 611.533 339.133 613.8 336.2C616.067 333.267 617.7 328.967 618.7 323.3H628.2C627.267 331.767 624.6 338.133 620.2 342.4C615.8 346.667 610.167 348.8 603.3 348.8C597.233 348.8 592.133 347.333 588 344.4C583.867 341.4 580.733 337.167 578.6 331.7C576.467 326.233 575.4 319.767 575.4 312.3C575.4 307.3 575.9 302.567 576.9 298.1C577.967 293.633 579.6 289.733 581.8 286.4C584 283 586.9 280.333 590.5 278.4C594.1 276.467 598.5 275.5 603.7 275.5C608.367 275.5 612.333 276.433 615.6 278.3C618.867 280.167 621.5 282.7 623.5 285.9C625.5 289.033 626.833 292.6 627.5 296.6ZM660.716 275.5C669.316 275.5 675.983 278.733 680.716 285.2C685.516 291.6 687.916 300.6 687.916 312.2C687.916 323.8 685.516 332.8 680.716 339.2C675.983 345.6 669.316 348.8 660.716 348.8C652.116 348.8 645.416 345.6 640.616 339.2C635.883 332.8 633.516 323.8 633.516 312.2C633.516 300.6 635.883 291.6 640.616 285.2C645.416 278.733 652.116 275.5 660.716 275.5ZM660.716 283.7C655.25 283.7 650.95 286.233 647.816 291.3C644.75 296.3 643.216 303.267 643.216 312.2C643.216 321.067 644.75 328.033 647.816 333.1C650.95 338.1 655.25 340.6 660.716 340.6C666.25 340.6 670.55 338.1 673.616 333.1C676.683 328.033 678.216 321.067 678.216 312.2C678.216 303.267 676.683 296.3 673.616 291.3C670.55 286.233 666.25 283.7 660.716 283.7ZM716.733 327L703.933 291.7V347H696.033V277.1H706.433L720.633 317.3L734.833 277.1H745.033V347H737.133V291.6L724.533 327H716.733ZM760.849 347V339.2H775.649V284.9H760.849V277.1H799.949V284.9H785.049V339.2H799.949V347H760.849ZM854.866 277.1H863.466V347H853.066L825.566 291.1H825.466V347H816.866V277.1H826.966L854.766 333.5H854.866V277.1ZM901.582 310H925.682V347H918.882L918.082 337.4C916.415 341.333 914.049 344.233 910.982 346.1C907.982 347.9 904.515 348.8 900.582 348.8C894.982 348.8 890.149 347.367 886.082 344.5C882.015 341.633 878.849 337.5 876.582 332.1C874.382 326.7 873.282 320.167 873.282 312.5C873.282 304.567 874.449 297.867 876.782 292.4C879.182 286.867 882.482 282.667 886.682 279.8C890.949 276.933 895.915 275.5 901.582 275.5C907.715 275.5 912.915 277.133 917.182 280.4C921.515 283.667 924.415 289 925.882 296.4H916.382C915.449 291.6 913.649 288.3 910.982 286.5C908.382 284.633 905.249 283.7 901.582 283.7C895.449 283.7 890.815 286.267 887.682 291.4C884.549 296.467 882.982 303.333 882.982 312C882.982 321.733 884.615 328.933 887.882 333.6C891.149 338.267 895.449 340.6 900.782 340.6C904.649 340.6 907.815 339.7 910.282 337.9C912.749 336.1 914.549 333.667 915.682 330.6C916.882 327.467 917.482 324 917.482 320.2V318.2H901.582V310ZM1043.91 297.3H1034.91C1034.78 293.3 1033.51 290 1031.11 287.4C1028.71 284.733 1025.08 283.4 1020.21 283.4C1015.41 283.4 1011.75 284.467 1009.21 286.6C1006.75 288.733 1005.51 291.367 1005.51 294.5C1005.51 300.1 1008.68 303.633 1015.01 305.1L1029.31 308.4C1034.78 309.667 1038.91 311.967 1041.71 315.3C1044.51 318.633 1045.91 322.567 1045.91 327.1C1045.91 331.7 1044.85 335.633 1042.71 338.9C1040.65 342.1 1037.75 344.567 1034.01 346.3C1030.35 347.967 1026.05 348.8 1021.11 348.8C1012.45 348.8 1005.81 346.667 1001.21 342.4C996.682 338.067 994.348 332.167 994.215 324.7H1003.21C1003.28 329.367 1004.85 333.167 1007.91 336.1C1010.98 339.033 1015.45 340.5 1021.31 340.5C1026.58 340.5 1030.41 339.367 1032.81 337.1C1035.28 334.833 1036.51 331.933 1036.51 328.4C1036.51 325.267 1035.65 322.8 1033.91 321C1032.25 319.2 1029.68 317.9 1026.21 317.1L1011.71 313.7C1006.65 312.5 1002.78 310.367 1000.11 307.3C997.448 304.167 996.115 300.2 996.115 295.4C996.115 291.467 997.115 288.033 999.115 285.1C1001.11 282.1 1003.91 279.767 1007.51 278.1C1011.18 276.367 1015.51 275.5 1020.51 275.5C1025.38 275.5 1029.55 276.4 1033.01 278.2C1036.55 280 1039.25 282.467 1041.11 285.6C1042.98 288.667 1043.91 292.133 1043.91 296V297.3ZM1079.43 275.5C1088.03 275.5 1094.7 278.733 1099.43 285.2C1104.23 291.6 1106.63 300.6 1106.63 312.2C1106.63 323.8 1104.23 332.8 1099.43 339.2C1094.7 345.6 1088.03 348.8 1079.43 348.8C1070.83 348.8 1064.13 345.6 1059.33 339.2C1054.6 332.8 1052.23 323.8 1052.23 312.2C1052.23 300.6 1054.6 291.6 1059.33 285.2C1064.13 278.733 1070.83 275.5 1079.43 275.5ZM1079.43 283.7C1073.96 283.7 1069.66 286.233 1066.53 291.3C1063.46 296.3 1061.93 303.267 1061.93 312.2C1061.93 321.067 1063.46 328.033 1066.53 333.1C1069.66 338.1 1073.96 340.6 1079.43 340.6C1084.96 340.6 1089.26 338.1 1092.33 333.1C1095.4 328.033 1096.93 321.067 1096.93 312.2C1096.93 303.267 1095.4 296.3 1092.33 291.3C1089.26 286.233 1084.96 283.7 1079.43 283.7ZM1139.25 275.5C1147.85 275.5 1154.51 278.733 1159.25 285.2C1164.05 291.6 1166.45 300.6 1166.45 312.2C1166.45 323.8 1164.05 332.8 1159.25 339.2C1154.51 345.6 1147.85 348.8 1139.25 348.8C1130.65 348.8 1123.95 345.6 1119.15 339.2C1114.41 332.8 1112.05 323.8 1112.05 312.2C1112.05 300.6 1114.41 291.6 1119.15 285.2C1123.95 278.733 1130.65 275.5 1139.25 275.5ZM1139.25 283.7C1133.78 283.7 1129.48 286.233 1126.35 291.3C1123.28 296.3 1121.75 303.267 1121.75 312.2C1121.75 321.067 1123.28 328.033 1126.35 333.1C1129.48 338.1 1133.78 340.6 1139.25 340.6C1144.78 340.6 1149.08 338.1 1152.15 333.1C1155.21 328.033 1156.75 321.067 1156.75 312.2C1156.75 303.267 1155.21 296.3 1152.15 291.3C1149.08 286.233 1144.78 283.7 1139.25 283.7ZM1213.76 277.1H1222.36V347H1211.96L1184.46 291.1H1184.36V347H1175.76V277.1H1185.86L1213.66 333.5H1213.76V277.1Z" fill="#848484"/>
<path d="M627.5 477.6H618C617 473.8 615.433 470.7 613.3 468.3C611.167 465.9 607.867 464.7 603.4 464.7C599 464.7 595.433 465.9 592.7 468.3C590.033 470.7 588.1 474.067 586.9 478.4C585.7 482.667 585.1 487.6 585.1 493.2C585.1 502.667 586.667 509.767 589.8 514.5C592.933 519.233 597.467 521.6 603.4 521.6C608.067 521.6 611.533 520.133 613.8 517.2C616.067 514.267 617.7 509.967 618.7 504.3H628.2C627.267 512.767 624.6 519.133 620.2 523.4C615.8 527.667 610.167 529.8 603.3 529.8C597.233 529.8 592.133 528.333 588 525.4C583.867 522.4 580.733 518.167 578.6 512.7C576.467 507.233 575.4 500.767 575.4 493.3C575.4 488.3 575.9 483.567 576.9 479.1C577.967 474.633 579.6 470.733 581.8 467.4C584 464 586.9 461.333 590.5 459.4C594.1 457.467 598.5 456.5 603.7 456.5C608.367 456.5 612.333 457.433 615.6 459.3C618.867 461.167 621.5 463.7 623.5 466.9C625.5 470.033 626.833 473.6 627.5 477.6ZM660.716 456.5C669.316 456.5 675.983 459.733 680.716 466.2C685.516 472.6 687.916 481.6 687.916 493.2C687.916 504.8 685.516 513.8 680.716 520.2C675.983 526.6 669.316 529.8 660.716 529.8C652.116 529.8 645.416 526.6 640.616 520.2C635.883 513.8 633.516 504.8 633.516 493.2C633.516 481.6 635.883 472.6 640.616 466.2C645.416 459.733 652.116 456.5 660.716 456.5ZM660.716 464.7C655.25 464.7 650.95 467.233 647.816 472.3C644.75 477.3 643.216 484.267 643.216 493.2C643.216 502.067 644.75 509.033 647.816 514.1C650.95 519.1 655.25 521.6 660.716 521.6C666.25 521.6 670.55 519.1 673.616 514.1C676.683 509.033 678.216 502.067 678.216 493.2C678.216 484.267 676.683 477.3 673.616 472.3C670.55 467.233 666.25 464.7 660.716 464.7ZM716.733 508L703.933 472.7V528H696.033V458.1H706.433L720.633 498.3L734.833 458.1H745.033V528H737.133V472.6L724.533 508H716.733ZM760.849 528V520.2H775.649V465.9H760.849V458.1H799.949V465.9H785.049V520.2H799.949V528H760.849ZM854.866 458.1H863.466V528H853.066L825.566 472.1H825.466V528H816.866V458.1H826.966L854.766 514.5H854.866V458.1ZM901.582 491H925.682V528H918.882L918.082 518.4C916.415 522.333 914.049 525.233 910.982 527.1C907.982 528.9 904.515 529.8 900.582 529.8C894.982 529.8 890.149 528.367 886.082 525.5C882.015 522.633 878.849 518.5 876.582 513.1C874.382 507.7 873.282 501.167 873.282 493.5C873.282 485.567 874.449 478.867 876.782 473.4C879.182 467.867 882.482 463.667 886.682 460.8C890.949 457.933 895.915 456.5 901.582 456.5C907.715 456.5 912.915 458.133 917.182 461.4C921.515 464.667 924.415 470 925.882 477.4H916.382C915.449 472.6 913.649 469.3 910.982 467.5C908.382 465.633 905.249 464.7 901.582 464.7C895.449 464.7 890.815 467.267 887.682 472.4C884.549 477.467 882.982 484.333 882.982 493C882.982 502.733 884.615 509.933 887.882 514.6C891.149 519.267 895.449 521.6 900.782 521.6C904.649 521.6 907.815 520.7 910.282 518.9C912.749 517.1 914.549 514.667 915.682 511.6C916.882 508.467 917.482 505 917.482 501.2V499.2H901.582V491ZM1043.91 478.3H1034.91C1034.78 474.3 1033.51 471 1031.11 468.4C1028.71 465.733 1025.08 464.4 1020.21 464.4C1015.41 464.4 1011.75 465.467 1009.21 467.6C1006.75 469.733 1005.51 472.367 1005.51 475.5C1005.51 481.1 1008.68 484.633 1015.01 486.1L1029.31 489.4C1034.78 490.667 1038.91 492.967 1041.71 496.3C1044.51 499.633 1045.91 503.567 1045.91 508.1C1045.91 512.7 1044.85 516.633 1042.71 519.9C1040.65 523.1 1037.75 525.567 1034.01 527.3C1030.35 528.967 1026.05 529.8 1021.11 529.8C1012.45 529.8 1005.81 527.667 1001.21 523.4C996.682 519.067 994.348 513.167 994.215 505.7H1003.21C1003.28 510.367 1004.85 514.167 1007.91 517.1C1010.98 520.033 1015.45 521.5 1021.31 521.5C1026.58 521.5 1030.41 520.367 1032.81 518.1C1035.28 515.833 1036.51 512.933 1036.51 509.4C1036.51 506.267 1035.65 503.8 1033.91 502C1032.25 500.2 1029.68 498.9 1026.21 498.1L1011.71 494.7C1006.65 493.5 1002.78 491.367 1000.11 488.3C997.448 485.167 996.115 481.2 996.115 476.4C996.115 472.467 997.115 469.033 999.115 466.1C1001.11 463.1 1003.91 460.767 1007.51 459.1C1011.18 457.367 1015.51 456.5 1020.51 456.5C1025.38 456.5 1029.55 457.4 1033.01 459.2C1036.55 461 1039.25 463.467 1041.11 466.6C1042.98 469.667 1043.91 473.133 1043.91 477V478.3ZM1079.43 456.5C1088.03 456.5 1094.7 459.733 1099.43 466.2C1104.23 472.6 1106.63 481.6 1106.63 493.2C1106.63 504.8 1104.23 513.8 1099.43 520.2C1094.7 526.6 1088.03 529.8 1079.43 529.8C1070.83 529.8 1064.13 526.6 1059.33 520.2C1054.6 513.8 1052.23 504.8 1052.23 493.2C1052.23 481.6 1054.6 472.6 1059.33 466.2C1064.13 459.733 1070.83 456.5 1079.43 456.5ZM1079.43 464.7C1073.96 464.7 1069.66 467.233 1066.53 472.3C1063.46 477.3 1061.93 484.267 1061.93 493.2C1061.93 502.067 1063.46 509.033 1066.53 514.1C1069.66 519.1 1073.96 521.6 1079.43 521.6C1084.96 521.6 1089.26 519.1 1092.33 514.1C1095.4 509.033 1096.93 502.067 1096.93 493.2C1096.93 484.267 1095.4 477.3 1092.33 472.3C1089.26 467.233 1084.96 464.7 1079.43 464.7ZM1139.25 456.5C1147.85 456.5 1154.51 459.733 1159.25 466.2C1164.05 472.6 1166.45 481.6 1166.45 493.2C1166.45 504.8 1164.05 513.8 1159.25 520.2C1154.51 526.6 1147.85 529.8 1139.25 529.8C1130.65 529.8 1123.95 526.6 1119.15 520.2C1114.41 513.8 1112.05 504.8 1112.05 493.2C1112.05 481.6 1114.41 472.6 1119.15 466.2C1123.95 459.733 1130.65 456.5 1139.25 456.5ZM1139.25 464.7C1133.78 464.7 1129.48 467.233 1126.35 472.3C1123.28 477.3 1121.75 484.267 1121.75 493.2C1121.75 502.067 1123.28 509.033 1126.35 514.1C1129.48 519.1 1133.78 521.6 1139.25 521.6C1144.78 521.6 1149.08 519.1 1152.15 514.1C1155.21 509.033 1156.75 502.067 1156.75 493.2C1156.75 484.267 1155.21 477.3 1152.15 472.3C1149.08 467.233 1144.78 464.7 1139.25 464.7ZM1213.76 458.1H1222.36V528H1211.96L1184.46 472.1H1184.36V528H1175.76V458.1H1185.86L1213.66 514.5H1213.76V458.1Z" fill="#848484"/>
<path d="M627.5 658.6H618C617 654.8 615.433 651.7 613.3 649.3C611.167 646.9 607.867 645.7 603.4 645.7C599 645.7 595.433 646.9 592.7 649.3C590.033 651.7 588.1 655.067 586.9 659.4C585.7 663.667 585.1 668.6 585.1 674.2C585.1 683.667 586.667 690.767 589.8 695.5C592.933 700.233 597.467 702.6 603.4 702.6C608.067 702.6 611.533 701.133 613.8 698.2C616.067 695.267 617.7 690.967 618.7 685.3H628.2C627.267 693.767 624.6 700.133 620.2 704.4C615.8 708.667 610.167 710.8 603.3 710.8C597.233 710.8 592.133 709.333 588 706.4C583.867 703.4 580.733 699.167 578.6 693.7C576.467 688.233 575.4 681.767 575.4 674.3C575.4 669.3 575.9 664.567 576.9 660.1C577.967 655.633 579.6 651.733 581.8 648.4C584 645 586.9 642.333 590.5 640.4C594.1 638.467 598.5 637.5 603.7 637.5C608.367 637.5 612.333 638.433 615.6 640.3C618.867 642.167 621.5 644.7 623.5 647.9C625.5 651.033 626.833 654.6 627.5 658.6ZM660.716 637.5C669.316 637.5 675.983 640.733 680.716 647.2C685.516 653.6 687.916 662.6 687.916 674.2C687.916 685.8 685.516 694.8 680.716 701.2C675.983 707.6 669.316 710.8 660.716 710.8C652.116 710.8 645.416 707.6 640.616 701.2C635.883 694.8 633.516 685.8 633.516 674.2C633.516 662.6 635.883 653.6 640.616 647.2C645.416 640.733 652.116 637.5 660.716 637.5ZM660.716 645.7C655.25 645.7 650.95 648.233 647.816 653.3C644.75 658.3 643.216 665.267 643.216 674.2C643.216 683.067 644.75 690.033 647.816 695.1C650.95 700.1 655.25 702.6 660.716 702.6C666.25 702.6 670.55 700.1 673.616 695.1C676.683 690.033 678.216 683.067 678.216 674.2C678.216 665.267 676.683 658.3 673.616 653.3C670.55 648.233 666.25 645.7 660.716 645.7ZM716.733 689L703.933 653.7V709H696.033V639.1H706.433L720.633 679.3L734.833 639.1H745.033V709H737.133V653.6L724.533 689H716.733ZM760.849 709V701.2H775.649V646.9H760.849V639.1H799.949V646.9H785.049V701.2H799.949V709H760.849ZM854.866 639.1H863.466V709H853.066L825.566 653.1H825.466V709H816.866V639.1H826.966L854.766 695.5H854.866V639.1ZM901.582 672H925.682V709H918.882L918.082 699.4C916.415 703.333 914.049 706.233 910.982 708.1C907.982 709.9 904.515 710.8 900.582 710.8C894.982 710.8 890.149 709.367 886.082 706.5C882.015 703.633 878.849 699.5 876.582 694.1C874.382 688.7 873.282 682.167 873.282 674.5C873.282 666.567 874.449 659.867 876.782 654.4C879.182 648.867 882.482 644.667 886.682 641.8C890.949 638.933 895.915 637.5 901.582 637.5C907.715 637.5 912.915 639.133 917.182 642.4C921.515 645.667 924.415 651 925.882 658.4H916.382C915.449 653.6 913.649 650.3 910.982 648.5C908.382 646.633 905.249 645.7 901.582 645.7C895.449 645.7 890.815 648.267 887.682 653.4C884.549 658.467 882.982 665.333 882.982 674C882.982 683.733 884.615 690.933 887.882 695.6C891.149 700.267 895.449 702.6 900.782 702.6C904.649 702.6 907.815 701.7 910.282 699.9C912.749 698.1 914.549 695.667 915.682 692.6C916.882 689.467 917.482 686 917.482 682.2V680.2H901.582V672ZM1043.91 659.3H1034.91C1034.78 655.3 1033.51 652 1031.11 649.4C1028.71 646.733 1025.08 645.4 1020.21 645.4C1015.41 645.4 1011.75 646.467 1009.21 648.6C1006.75 650.733 1005.51 653.367 1005.51 656.5C1005.51 662.1 1008.68 665.633 1015.01 667.1L1029.31 670.4C1034.78 671.667 1038.91 673.967 1041.71 677.3C1044.51 680.633 1045.91 684.567 1045.91 689.1C1045.91 693.7 1044.85 697.633 1042.71 700.9C1040.65 704.1 1037.75 706.567 1034.01 708.3C1030.35 709.967 1026.05 710.8 1021.11 710.8C1012.45 710.8 1005.81 708.667 1001.21 704.4C996.682 700.067 994.348 694.167 994.215 686.7H1003.21C1003.28 691.367 1004.85 695.167 1007.91 698.1C1010.98 701.033 1015.45 702.5 1021.31 702.5C1026.58 702.5 1030.41 701.367 1032.81 699.1C1035.28 696.833 1036.51 693.933 1036.51 690.4C1036.51 687.267 1035.65 684.8 1033.91 683C1032.25 681.2 1029.68 679.9 1026.21 679.1L1011.71 675.7C1006.65 674.5 1002.78 672.367 1000.11 669.3C997.448 666.167 996.115 662.2 996.115 657.4C996.115 653.467 997.115 650.033 999.115 647.1C1001.11 644.1 1003.91 641.767 1007.51 640.1C1011.18 638.367 1015.51 637.5 1020.51 637.5C1025.38 637.5 1029.55 638.4 1033.01 640.2C1036.55 642 1039.25 644.467 1041.11 647.6C1042.98 650.667 1043.91 654.133 1043.91 658V659.3ZM1079.43 637.5C1088.03 637.5 1094.7 640.733 1099.43 647.2C1104.23 653.6 1106.63 662.6 1106.63 674.2C1106.63 685.8 1104.23 694.8 1099.43 701.2C1094.7 707.6 1088.03 710.8 1079.43 710.8C1070.83 710.8 1064.13 707.6 1059.33 701.2C1054.6 694.8 1052.23 685.8 1052.23 674.2C1052.23 662.6 1054.6 653.6 1059.33 647.2C1064.13 640.733 1070.83 637.5 1079.43 637.5ZM1079.43 645.7C1073.96 645.7 1069.66 648.233 1066.53 653.3C1063.46 658.3 1061.93 665.267 1061.93 674.2C1061.93 683.067 1063.46 690.033 1066.53 695.1C1069.66 700.1 1073.96 702.6 1079.43 702.6C1084.96 702.6 1089.26 700.1 1092.33 695.1C1095.4 690.033 1096.93 683.067 1096.93 674.2C1096.93 665.267 1095.4 658.3 1092.33 653.3C1089.26 648.233 1084.96 645.7 1079.43 645.7ZM1139.25 637.5C1147.85 637.5 1154.51 640.733 1159.25 647.2C1164.05 653.6 1166.45 662.6 1166.45 674.2C1166.45 685.8 1164.05 694.8 1159.25 701.2C1154.51 707.6 1147.85 710.8 1139.25 710.8C1130.65 710.8 1123.95 707.6 1119.15 701.2C1114.41 694.8 1112.05 685.8 1112.05 674.2C1112.05 662.6 1114.41 653.6 1119.15 647.2C1123.95 640.733 1130.65 637.5 1139.25 637.5ZM1139.25 645.7C1133.78 645.7 1129.48 648.233 1126.35 653.3C1123.28 658.3 1121.75 665.267 1121.75 674.2C1121.75 683.067 1123.28 690.033 1126.35 695.1C1129.48 700.1 1133.78 702.6 1139.25 702.6C1144.78 702.6 1149.08 700.1 1152.15 695.1C1155.21 690.033 1156.75 683.067 1156.75 674.2C1156.75 665.267 1155.21 658.3 1152.15 653.3C1149.08 648.233 1144.78 645.7 1139.25 645.7ZM1213.76 639.1H1222.36V709H1211.96L1184.46 653.1H1184.36V709H1175.76V639.1H1185.86L1213.66 695.5H1213.76V639.1Z" fill="#848484"/>
<path d="M627.5 839.6H618C617 835.8 615.433 832.7 613.3 830.3C611.167 827.9 607.867 826.7 603.4 826.7C599 826.7 595.433 827.9 592.7 830.3C590.033 832.7 588.1 836.067 586.9 840.4C585.7 844.667 585.1 849.6 585.1 855.2C585.1 864.667 586.667 871.767 589.8 876.5C592.933 881.233 597.467 883.6 603.4 883.6C608.067 883.6 611.533 882.133 613.8 879.2C616.067 876.267 617.7 871.967 618.7 866.3H628.2C627.267 874.767 624.6 881.133 620.2 885.4C615.8 889.667 610.167 891.8 603.3 891.8C597.233 891.8 592.133 890.333 588 887.4C583.867 884.4 580.733 880.167 578.6 874.7C576.467 869.233 575.4 862.767 575.4 855.3C575.4 850.3 575.9 845.567 576.9 841.1C577.967 836.633 579.6 832.733 581.8 829.4C584 826 586.9 823.333 590.5 821.4C594.1 819.467 598.5 818.5 603.7 818.5C608.367 818.5 612.333 819.433 615.6 821.3C618.867 823.167 621.5 825.7 623.5 828.9C625.5 832.033 626.833 835.6 627.5 839.6ZM660.716 818.5C669.316 818.5 675.983 821.733 680.716 828.2C685.516 834.6 687.916 843.6 687.916 855.2C687.916 866.8 685.516 875.8 680.716 882.2C675.983 888.6 669.316 891.8 660.716 891.8C652.116 891.8 645.416 888.6 640.616 882.2C635.883 875.8 633.516 866.8 633.516 855.2C633.516 843.6 635.883 834.6 640.616 828.2C645.416 821.733 652.116 818.5 660.716 818.5ZM660.716 826.7C655.25 826.7 650.95 829.233 647.816 834.3C644.75 839.3 643.216 846.267 643.216 855.2C643.216 864.067 644.75 871.033 647.816 876.1C650.95 881.1 655.25 883.6 660.716 883.6C666.25 883.6 670.55 881.1 673.616 876.1C676.683 871.033 678.216 864.067 678.216 855.2C678.216 846.267 676.683 839.3 673.616 834.3C670.55 829.233 666.25 826.7 660.716 826.7ZM716.733 870L703.933 834.7V890H696.033V820.1H706.433L720.633 860.3L734.833 820.1H745.033V890H737.133V834.6L724.533 870H716.733ZM760.849 890V882.2H775.649V827.9H760.849V820.1H799.949V827.9H785.049V882.2H799.949V890H760.849ZM854.866 820.1H863.466V890H853.066L825.566 834.1H825.466V890H816.866V820.1H826.966L854.766 876.5H854.866V820.1ZM901.582 853H925.682V890H918.882L918.082 880.4C916.415 884.333 914.049 887.233 910.982 889.1C907.982 890.9 904.515 891.8 900.582 891.8C894.982 891.8 890.149 890.367 886.082 887.5C882.015 884.633 878.849 880.5 876.582 875.1C874.382 869.7 873.282 863.167 873.282 855.5C873.282 847.567 874.449 840.867 876.782 835.4C879.182 829.867 882.482 825.667 886.682 822.8C890.949 819.933 895.915 818.5 901.582 818.5C907.715 818.5 912.915 820.133 917.182 823.4C921.515 826.667 924.415 832 925.882 839.4H916.382C915.449 834.6 913.649 831.3 910.982 829.5C908.382 827.633 905.249 826.7 901.582 826.7C895.449 826.7 890.815 829.267 887.682 834.4C884.549 839.467 882.982 846.333 882.982 855C882.982 864.733 884.615 871.933 887.882 876.6C891.149 881.267 895.449 883.6 900.782 883.6C904.649 883.6 907.815 882.7 910.282 880.9C912.749 879.1 914.549 876.667 915.682 873.6C916.882 870.467 917.482 867 917.482 863.2V861.2H901.582V853ZM1043.91 840.3H1034.91C1034.78 836.3 1033.51 833 1031.11 830.4C1028.71 827.733 1025.08 826.4 1020.21 826.4C1015.41 826.4 1011.75 827.467 1009.21 829.6C1006.75 831.733 1005.51 834.367 1005.51 837.5C1005.51 843.1 1008.68 846.633 1015.01 848.1L1029.31 851.4C1034.78 852.667 1038.91 854.967 1041.71 858.3C1044.51 861.633 1045.91 865.567 1045.91 870.1C1045.91 874.7 1044.85 878.633 1042.71 881.9C1040.65 885.1 1037.75 887.567 1034.01 889.3C1030.35 890.967 1026.05 891.8 1021.11 891.8C1012.45 891.8 1005.81 889.667 1001.21 885.4C996.682 881.067 994.348 875.167 994.215 867.7H1003.21C1003.28 872.367 1004.85 876.167 1007.91 879.1C1010.98 882.033 1015.45 883.5 1021.31 883.5C1026.58 883.5 1030.41 882.367 1032.81 880.1C1035.28 877.833 1036.51 874.933 1036.51 871.4C1036.51 868.267 1035.65 865.8 1033.91 864C1032.25 862.2 1029.68 860.9 1026.21 860.1L1011.71 856.7C1006.65 855.5 1002.78 853.367 1000.11 850.3C997.448 847.167 996.115 843.2 996.115 838.4C996.115 834.467 997.115 831.033 999.115 828.1C1001.11 825.1 1003.91 822.767 1007.51 821.1C1011.18 819.367 1015.51 818.5 1020.51 818.5C1025.38 818.5 1029.55 819.4 1033.01 821.2C1036.55 823 1039.25 825.467 1041.11 828.6C1042.98 831.667 1043.91 835.133 1043.91 839V840.3ZM1079.43 818.5C1088.03 818.5 1094.7 821.733 1099.43 828.2C1104.23 834.6 1106.63 843.6 1106.63 855.2C1106.63 866.8 1104.23 875.8 1099.43 882.2C1094.7 888.6 1088.03 891.8 1079.43 891.8C1070.83 891.8 1064.13 888.6 1059.33 882.2C1054.6 875.8 1052.23 866.8 1052.23 855.2C1052.23 843.6 1054.6 834.6 1059.33 828.2C1064.13 821.733 1070.83 818.5 1079.43 818.5ZM1079.43 826.7C1073.96 826.7 1069.66 829.233 1066.53 834.3C1063.46 839.3 1061.93 846.267 1061.93 855.2C1061.93 864.067 1063.46 871.033 1066.53 876.1C1069.66 881.1 1073.96 883.6 1079.43 883.6C1084.96 883.6 1089.26 881.1 1092.33 876.1C1095.4 871.033 1096.93 864.067 1096.93 855.2C1096.93 846.267 1095.4 839.3 1092.33 834.3C1089.26 829.233 1084.96 826.7 1079.43 826.7ZM1139.25 818.5C1147.85 818.5 1154.51 821.733 1159.25 828.2C1164.05 834.6 1166.45 843.6 1166.45 855.2C1166.45 866.8 1164.05 875.8 1159.25 882.2C1154.51 888.6 1147.85 891.8 1139.25 891.8C1130.65 891.8 1123.95 888.6 1119.15 882.2C1114.41 875.8 1112.05 866.8 1112.05 855.2C1112.05 843.6 1114.41 834.6 1119.15 828.2C1123.95 821.733 1130.65 818.5 1139.25 818.5ZM1139.25 826.7C1133.78 826.7 1129.48 829.233 1126.35 834.3C1123.28 839.3 1121.75 846.267 1121.75 855.2C1121.75 864.067 1123.28 871.033 1126.35 876.1C1129.48 881.1 1133.78 883.6 1139.25 883.6C1144.78 883.6 1149.08 881.1 1152.15 876.1C1155.21 871.033 1156.75 864.067 1156.75 855.2C1156.75 846.267 1155.21 839.3 1152.15 834.3C1149.08 829.233 1144.78 826.7 1139.25 826.7ZM1213.76 820.1H1222.36V890H1211.96L1184.46 834.1H1184.36V890H1175.76V820.1H1185.86L1213.66 876.5H1213.76V820.1Z" fill="#848484"/>
</svg>
